<mxfile host="Electron" modified="2023-06-28T20:44:06.690Z" agent="Mozilla/5.0 (Windows NT 10.0; Win64; x64) AppleWebKit/537.36 (KHTML, like Gecko) draw.io/21.5.1 Chrome/112.0.5615.204 Electron/24.6.0 Safari/537.36" etag="ewv6C4UynkHkWDPRAm8C" version="21.5.1" type="device" pages="2">
  <diagram name="PÃ¡gina-1" id="GQbh5GMuBPTJf_VO34jZ">
    <mxGraphModel dx="1970" dy="566" grid="1" gridSize="10" guides="1" tooltips="1" connect="1" arrows="1" fold="1" page="1" pageScale="1" pageWidth="827" pageHeight="1169" math="0" shadow="0">
      <root>
        <mxCell id="0" />
        <mxCell id="1" parent="0" />
        <mxCell id="MQ2TYuxiGAc7EAt8CKPm-81" style="edgeStyle=orthogonalEdgeStyle;rounded=0;orthogonalLoop=1;jettySize=auto;html=1;entryX=0.5;entryY=0;entryDx=0;entryDy=0;" parent="1" source="MQ2TYuxiGAc7EAt8CKPm-7" target="MQ2TYuxiGAc7EAt8CKPm-11" edge="1">
          <mxGeometry relative="1" as="geometry" />
        </mxCell>
        <mxCell id="MQ2TYuxiGAc7EAt8CKPm-7" value="Basic Auth Required" style="shape=process;whiteSpace=wrap;html=1;backgroundOutline=1;" parent="1" vertex="1">
          <mxGeometry x="364.5" y="290" width="160" height="40" as="geometry" />
        </mxCell>
        <mxCell id="MQ2TYuxiGAc7EAt8CKPm-10" style="edgeStyle=orthogonalEdgeStyle;rounded=0;orthogonalLoop=1;jettySize=auto;html=1;" parent="1" source="MQ2TYuxiGAc7EAt8CKPm-11" target="MQ2TYuxiGAc7EAt8CKPm-16" edge="1">
          <mxGeometry relative="1" as="geometry" />
        </mxCell>
        <mxCell id="MQ2TYuxiGAc7EAt8CKPm-11" value="Middle Logic" style="rounded=1;whiteSpace=wrap;html=1;" parent="1" vertex="1">
          <mxGeometry x="369.5" y="358" width="150" height="60" as="geometry" />
        </mxCell>
        <mxCell id="MQ2TYuxiGAc7EAt8CKPm-13" style="edgeStyle=orthogonalEdgeStyle;rounded=0;orthogonalLoop=1;jettySize=auto;html=1;" parent="1" source="MQ2TYuxiGAc7EAt8CKPm-16" target="MQ2TYuxiGAc7EAt8CKPm-84" edge="1">
          <mxGeometry relative="1" as="geometry">
            <Array as="points">
              <mxPoint x="446" y="510" />
              <mxPoint x="446" y="510" />
            </Array>
            <mxPoint x="220" y="480" as="targetPoint" />
          </mxGeometry>
        </mxCell>
        <mxCell id="MQ2TYuxiGAc7EAt8CKPm-16" value="Business&lt;br&gt;Geocode Address" style="shape=process;whiteSpace=wrap;html=1;backgroundOutline=1;" parent="1" vertex="1">
          <mxGeometry x="357.5" y="440" width="175" height="40" as="geometry" />
        </mxCell>
        <mxCell id="MQ2TYuxiGAc7EAt8CKPm-83" style="edgeStyle=orthogonalEdgeStyle;rounded=0;orthogonalLoop=1;jettySize=auto;html=1;" parent="1" source="MQ2TYuxiGAc7EAt8CKPm-82" target="MQ2TYuxiGAc7EAt8CKPm-11" edge="1">
          <mxGeometry relative="1" as="geometry" />
        </mxCell>
        <mxCell id="MQ2TYuxiGAc7EAt8CKPm-82" value="Config" style="rounded=1;whiteSpace=wrap;html=1;" parent="1" vertex="1">
          <mxGeometry x="550.5" y="368" width="85" height="40" as="geometry" />
        </mxCell>
        <mxCell id="wfGZv9K_tsumz6_QDD_h-5" style="edgeStyle=orthogonalEdgeStyle;rounded=0;orthogonalLoop=1;jettySize=auto;html=1;entryX=0.5;entryY=0;entryDx=0;entryDy=0;" parent="1" source="MQ2TYuxiGAc7EAt8CKPm-84" target="wfGZv9K_tsumz6_QDD_h-1" edge="1">
          <mxGeometry relative="1" as="geometry" />
        </mxCell>
        <mxCell id="v0a8h6SUv91O5oRBk8ah-11" style="edgeStyle=orthogonalEdgeStyle;rounded=0;orthogonalLoop=1;jettySize=auto;html=1;" parent="1" source="MQ2TYuxiGAc7EAt8CKPm-84" target="v0a8h6SUv91O5oRBk8ah-6" edge="1">
          <mxGeometry relative="1" as="geometry" />
        </mxCell>
        <mxCell id="MQ2TYuxiGAc7EAt8CKPm-84" value="Is the&lt;br&gt;ContentType&lt;br&gt;JSON?" style="rhombus;whiteSpace=wrap;html=1;" parent="1" vertex="1">
          <mxGeometry x="384.5" y="510" width="120" height="120" as="geometry" />
        </mxCell>
        <mxCell id="wfGZv9K_tsumz6_QDD_h-1" value="Error Not Json" style="swimlane;fontStyle=0;childLayout=stackLayout;horizontal=1;startSize=30;horizontalStack=0;resizeParent=1;resizeParentMax=0;resizeLast=0;collapsible=1;marginBottom=0;whiteSpace=wrap;html=1;" parent="1" vertex="1">
          <mxGeometry x="74" y="600" width="260" height="140" as="geometry">
            <mxRectangle x="74" y="600" width="117" height="20" as="alternateBounds" />
          </mxGeometry>
        </mxCell>
        <mxCell id="v0a8h6SUv91O5oRBk8ah-27" value="status_code: 500" style="text;strokeColor=none;fillColor=none;align=left;verticalAlign=middle;spacingLeft=4;spacingRight=4;overflow=hidden;points=[[0,0.5],[1,0.5]];portConstraint=eastwest;rotatable=0;whiteSpace=wrap;html=1;" parent="wfGZv9K_tsumz6_QDD_h-1" vertex="1">
          <mxGeometry y="30" width="260" height="20" as="geometry" />
        </mxCell>
        <mxCell id="VJzOnykqqH7Xgn4NE6L_-6" value="log_error: received content type is not JSON" style="text;strokeColor=none;fillColor=none;align=left;verticalAlign=middle;spacingLeft=4;spacingRight=4;overflow=hidden;points=[[0,0.5],[1,0.5]];portConstraint=eastwest;rotatable=0;whiteSpace=wrap;html=1;" parent="wfGZv9K_tsumz6_QDD_h-1" vertex="1">
          <mxGeometry y="50" width="260" height="20" as="geometry" />
        </mxCell>
        <mxCell id="VJzOnykqqH7Xgn4NE6L_-29" value="error: failed validation" style="text;strokeColor=none;fillColor=none;align=left;verticalAlign=middle;spacingLeft=4;spacingRight=4;overflow=hidden;points=[[0,0.5],[1,0.5]];portConstraint=eastwest;rotatable=0;whiteSpace=wrap;html=1;" parent="wfGZv9K_tsumz6_QDD_h-1" vertex="1">
          <mxGeometry y="70" width="260" height="20" as="geometry" />
        </mxCell>
        <mxCell id="VJzOnykqqH7Xgn4NE6L_-28" value="response" style="swimlane;fontStyle=0;childLayout=stackLayout;horizontal=1;startSize=30;horizontalStack=0;resizeParent=1;resizeParentMax=0;resizeLast=0;collapsible=1;marginBottom=0;whiteSpace=wrap;html=1;" parent="wfGZv9K_tsumz6_QDD_h-1" vertex="1">
          <mxGeometry y="90" width="260" height="50" as="geometry">
            <mxRectangle y="90" width="260" height="20" as="alternateBounds" />
          </mxGeometry>
        </mxCell>
        <mxCell id="VJzOnykqqH7Xgn4NE6L_-16" value="error:&amp;nbsp;not json" style="text;strokeColor=none;fillColor=none;align=left;verticalAlign=middle;spacingLeft=4;spacingRight=4;overflow=hidden;points=[[0,0.5],[1,0.5]];portConstraint=eastwest;rotatable=0;whiteSpace=wrap;html=1;" parent="VJzOnykqqH7Xgn4NE6L_-28" vertex="1">
          <mxGeometry y="30" width="260" height="20" as="geometry" />
        </mxCell>
        <mxCell id="v0a8h6SUv91O5oRBk8ah-3" value="NO" style="text;html=1;strokeColor=none;fillColor=none;align=center;verticalAlign=middle;whiteSpace=wrap;rounded=0;" parent="1" vertex="1">
          <mxGeometry x="324.5" y="530" width="60" height="30" as="geometry" />
        </mxCell>
        <mxCell id="VJzOnykqqH7Xgn4NE6L_-158" style="edgeStyle=orthogonalEdgeStyle;rounded=0;orthogonalLoop=1;jettySize=auto;html=1;entryX=0.5;entryY=0;entryDx=0;entryDy=0;" parent="1" source="v0a8h6SUv91O5oRBk8ah-6" target="v0a8h6SUv91O5oRBk8ah-14" edge="1">
          <mxGeometry relative="1" as="geometry" />
        </mxCell>
        <mxCell id="v0a8h6SUv91O5oRBk8ah-6" value="Retrieve Address Data" style="swimlane;fontStyle=0;childLayout=stackLayout;horizontal=1;startSize=30;horizontalStack=0;resizeParent=1;resizeParentMax=0;resizeLast=0;collapsible=1;marginBottom=0;whiteSpace=wrap;html=1;" parent="1" vertex="1">
          <mxGeometry x="364.5" y="700" width="145.5" height="110" as="geometry">
            <mxRectangle x="364.5" y="700" width="160" height="30" as="alternateBounds" />
          </mxGeometry>
        </mxCell>
        <mxCell id="v0a8h6SUv91O5oRBk8ah-7" value="request" style="text;strokeColor=none;fillColor=none;align=left;verticalAlign=middle;spacingLeft=4;spacingRight=4;overflow=hidden;points=[[0,0.5],[1,0.5]];portConstraint=eastwest;rotatable=0;whiteSpace=wrap;html=1;" parent="v0a8h6SUv91O5oRBk8ah-6" vertex="1">
          <mxGeometry y="30" width="145.5" height="20" as="geometry" />
        </mxCell>
        <mxCell id="v0a8h6SUv91O5oRBk8ah-8" value="payload" style="text;strokeColor=none;fillColor=none;align=left;verticalAlign=middle;spacingLeft=4;spacingRight=4;overflow=hidden;points=[[0,0.5],[1,0.5]];portConstraint=eastwest;rotatable=0;whiteSpace=wrap;html=1;" parent="v0a8h6SUv91O5oRBk8ah-6" vertex="1">
          <mxGeometry y="50" width="145.5" height="20" as="geometry" />
        </mxCell>
        <mxCell id="v0a8h6SUv91O5oRBk8ah-13" value="address_raw" style="text;strokeColor=none;fillColor=none;align=left;verticalAlign=middle;spacingLeft=4;spacingRight=4;overflow=hidden;points=[[0,0.5],[1,0.5]];portConstraint=eastwest;rotatable=0;whiteSpace=wrap;html=1;" parent="v0a8h6SUv91O5oRBk8ah-6" vertex="1">
          <mxGeometry y="70" width="145.5" height="20" as="geometry" />
        </mxCell>
        <mxCell id="v0a8h6SUv91O5oRBk8ah-12" value="logging.debug" style="text;strokeColor=none;fillColor=none;align=left;verticalAlign=middle;spacingLeft=4;spacingRight=4;overflow=hidden;points=[[0,0.5],[1,0.5]];portConstraint=eastwest;rotatable=0;whiteSpace=wrap;html=1;" parent="v0a8h6SUv91O5oRBk8ah-6" vertex="1">
          <mxGeometry y="90" width="145.5" height="20" as="geometry" />
        </mxCell>
        <mxCell id="v0a8h6SUv91O5oRBk8ah-26" style="edgeStyle=orthogonalEdgeStyle;rounded=0;orthogonalLoop=1;jettySize=auto;html=1;entryX=0.5;entryY=0;entryDx=0;entryDy=0;" parent="1" source="v0a8h6SUv91O5oRBk8ah-14" target="v0a8h6SUv91O5oRBk8ah-23" edge="1">
          <mxGeometry relative="1" as="geometry" />
        </mxCell>
        <mxCell id="v0a8h6SUv91O5oRBk8ah-35" style="edgeStyle=orthogonalEdgeStyle;rounded=0;orthogonalLoop=1;jettySize=auto;html=1;" parent="1" source="v0a8h6SUv91O5oRBk8ah-14" target="v0a8h6SUv91O5oRBk8ah-29" edge="1">
          <mxGeometry relative="1" as="geometry" />
        </mxCell>
        <mxCell id="v0a8h6SUv91O5oRBk8ah-14" value="Is the Address Raw empty?" style="rhombus;whiteSpace=wrap;html=1;" parent="1" vertex="1">
          <mxGeometry x="392.75" y="830" width="105.5" height="100" as="geometry" />
        </mxCell>
        <mxCell id="v0a8h6SUv91O5oRBk8ah-22" value="YES" style="text;html=1;strokeColor=none;fillColor=none;align=center;verticalAlign=middle;whiteSpace=wrap;rounded=0;" parent="1" vertex="1">
          <mxGeometry x="350" y="850" width="60" height="30" as="geometry" />
        </mxCell>
        <mxCell id="v0a8h6SUv91O5oRBk8ah-23" value="failed validation" style="swimlane;fontStyle=0;childLayout=stackLayout;horizontal=1;startSize=30;horizontalStack=0;resizeParent=1;resizeParentMax=0;resizeLast=0;collapsible=1;marginBottom=0;whiteSpace=wrap;html=1;" parent="1" vertex="1">
          <mxGeometry x="160" y="910" width="190" height="140" as="geometry">
            <mxRectangle x="160" y="910" width="130" height="20" as="alternateBounds" />
          </mxGeometry>
        </mxCell>
        <mxCell id="VJzOnykqqH7Xgn4NE6L_-7" value="status_code: 500&lt;span style=&quot;background-color: initial;&quot;&gt;&amp;nbsp;&lt;/span&gt;" style="text;strokeColor=none;fillColor=none;align=left;verticalAlign=middle;spacingLeft=4;spacingRight=4;overflow=hidden;points=[[0,0.5],[1,0.5]];portConstraint=eastwest;rotatable=0;whiteSpace=wrap;html=1;" parent="v0a8h6SUv91O5oRBk8ah-23" vertex="1">
          <mxGeometry y="30" width="190" height="20" as="geometry" />
        </mxCell>
        <mxCell id="VJzOnykqqH7Xgn4NE6L_-17" value="log_error:&amp;nbsp;no address submitted" style="text;strokeColor=none;fillColor=none;align=left;verticalAlign=middle;spacingLeft=4;spacingRight=4;overflow=hidden;points=[[0,0.5],[1,0.5]];portConstraint=eastwest;rotatable=0;whiteSpace=wrap;html=1;" parent="v0a8h6SUv91O5oRBk8ah-23" vertex="1">
          <mxGeometry y="50" width="190" height="20" as="geometry" />
        </mxCell>
        <mxCell id="v0a8h6SUv91O5oRBk8ah-24" value="error_string:&amp;nbsp;failed validation&lt;span style=&quot;background-color: initial;&quot;&gt;&amp;nbsp;&lt;/span&gt;" style="text;strokeColor=none;fillColor=none;align=left;verticalAlign=middle;spacingLeft=4;spacingRight=4;overflow=hidden;points=[[0,0.5],[1,0.5]];portConstraint=eastwest;rotatable=0;whiteSpace=wrap;html=1;" parent="v0a8h6SUv91O5oRBk8ah-23" vertex="1">
          <mxGeometry y="70" width="190" height="20" as="geometry" />
        </mxCell>
        <mxCell id="VJzOnykqqH7Xgn4NE6L_-25" value="response" style="swimlane;fontStyle=0;childLayout=stackLayout;horizontal=1;startSize=30;horizontalStack=0;resizeParent=1;resizeParentMax=0;resizeLast=0;collapsible=1;marginBottom=0;whiteSpace=wrap;html=1;" parent="v0a8h6SUv91O5oRBk8ah-23" vertex="1">
          <mxGeometry y="90" width="190" height="50" as="geometry">
            <mxRectangle y="90" width="190" height="20" as="alternateBounds" />
          </mxGeometry>
        </mxCell>
        <mxCell id="VJzOnykqqH7Xgn4NE6L_-27" value="error: failed validation" style="text;strokeColor=none;fillColor=none;align=left;verticalAlign=middle;spacingLeft=4;spacingRight=4;overflow=hidden;points=[[0,0.5],[1,0.5]];portConstraint=eastwest;rotatable=0;whiteSpace=wrap;html=1;" parent="VJzOnykqqH7Xgn4NE6L_-25" vertex="1">
          <mxGeometry y="30" width="190" height="20" as="geometry" />
        </mxCell>
        <mxCell id="ZMIsmSmkyDihsnF_ENOn-4" style="edgeStyle=orthogonalEdgeStyle;rounded=0;orthogonalLoop=1;jettySize=auto;html=1;" parent="1" source="v0a8h6SUv91O5oRBk8ah-29" target="ZMIsmSmkyDihsnF_ENOn-3" edge="1">
          <mxGeometry relative="1" as="geometry" />
        </mxCell>
        <mxCell id="v0a8h6SUv91O5oRBk8ah-29" value="Send Query" style="swimlane;fontStyle=0;childLayout=stackLayout;horizontal=1;startSize=30;horizontalStack=0;resizeParent=1;resizeParentMax=0;resizeLast=0;collapsible=1;marginBottom=0;whiteSpace=wrap;html=1;" parent="1" vertex="1">
          <mxGeometry x="365.75" y="979" width="255" height="90" as="geometry">
            <mxRectangle x="365.75" y="979" width="160" height="30" as="alternateBounds" />
          </mxGeometry>
        </mxCell>
        <mxCell id="v0a8h6SUv91O5oRBk8ah-30" value="config" style="text;strokeColor=none;fillColor=none;align=left;verticalAlign=middle;spacingLeft=4;spacingRight=4;overflow=hidden;points=[[0,0.5],[1,0.5]];portConstraint=eastwest;rotatable=0;whiteSpace=wrap;html=1;" parent="v0a8h6SUv91O5oRBk8ah-29" vertex="1">
          <mxGeometry y="30" width="255" height="20" as="geometry" />
        </mxCell>
        <mxCell id="v0a8h6SUv91O5oRBk8ah-31" value="headers: { &quot;apikey&quot;: $DATA_BC_API_KEY}" style="text;strokeColor=none;fillColor=none;align=left;verticalAlign=middle;spacingLeft=4;spacingRight=4;overflow=hidden;points=[[0,0.5],[1,0.5]];portConstraint=eastwest;rotatable=0;whiteSpace=wrap;html=1;" parent="v0a8h6SUv91O5oRBk8ah-29" vertex="1">
          <mxGeometry y="50" width="255" height="20" as="geometry" />
        </mxCell>
        <mxCell id="v0a8h6SUv91O5oRBk8ah-32" value="params: {&quot;addressString&quot;: $address_raw}&lt;span style=&quot;background-color: initial;&quot;&gt;&amp;nbsp;&lt;/span&gt;" style="text;strokeColor=none;fillColor=none;align=left;verticalAlign=middle;spacingLeft=4;spacingRight=4;overflow=hidden;points=[[0,0.5],[1,0.5]];portConstraint=eastwest;rotatable=0;whiteSpace=wrap;html=1;" parent="v0a8h6SUv91O5oRBk8ah-29" vertex="1">
          <mxGeometry y="70" width="255" height="20" as="geometry" />
        </mxCell>
        <mxCell id="ZMIsmSmkyDihsnF_ENOn-2" value="" style="edgeStyle=orthogonalEdgeStyle;rounded=0;orthogonalLoop=1;jettySize=auto;html=1;" parent="1" source="ZMIsmSmkyDihsnF_ENOn-1" target="MQ2TYuxiGAc7EAt8CKPm-7" edge="1">
          <mxGeometry relative="1" as="geometry" />
        </mxCell>
        <mxCell id="ZMIsmSmkyDihsnF_ENOn-1" value="POST&lt;br&gt;&lt;b&gt;/address&lt;/b&gt;" style="shape=process;whiteSpace=wrap;html=1;backgroundOutline=1;" parent="1" vertex="1">
          <mxGeometry x="357.5" y="210" width="175" height="40" as="geometry" />
        </mxCell>
        <mxCell id="VJzOnykqqH7Xgn4NE6L_-45" style="edgeStyle=orthogonalEdgeStyle;rounded=0;orthogonalLoop=1;jettySize=auto;html=1;" parent="1" source="ZMIsmSmkyDihsnF_ENOn-3" target="VJzOnykqqH7Xgn4NE6L_-30" edge="1">
          <mxGeometry relative="1" as="geometry">
            <Array as="points">
              <mxPoint x="446" y="1200" />
              <mxPoint x="380" y="1200" />
            </Array>
          </mxGeometry>
        </mxCell>
        <mxCell id="VJzOnykqqH7Xgn4NE6L_-46" style="edgeStyle=orthogonalEdgeStyle;rounded=0;orthogonalLoop=1;jettySize=auto;html=1;entryX=0.49;entryY=-0.003;entryDx=0;entryDy=0;entryPerimeter=0;" parent="1" target="VJzOnykqqH7Xgn4NE6L_-2" edge="1">
          <mxGeometry relative="1" as="geometry">
            <mxPoint x="446" y="1180" as="sourcePoint" />
            <Array as="points">
              <mxPoint x="446" y="1200" />
              <mxPoint x="124" y="1200" />
            </Array>
          </mxGeometry>
        </mxCell>
        <mxCell id="VJzOnykqqH7Xgn4NE6L_-47" style="edgeStyle=orthogonalEdgeStyle;rounded=0;orthogonalLoop=1;jettySize=auto;html=1;entryX=0.452;entryY=0.006;entryDx=0;entryDy=0;entryPerimeter=0;" parent="1" source="ZMIsmSmkyDihsnF_ENOn-3" target="VJzOnykqqH7Xgn4NE6L_-37" edge="1">
          <mxGeometry relative="1" as="geometry">
            <Array as="points">
              <mxPoint x="446" y="1200" />
              <mxPoint x="670" y="1200" />
              <mxPoint x="670" y="1230" />
            </Array>
          </mxGeometry>
        </mxCell>
        <mxCell id="ZMIsmSmkyDihsnF_ENOn-3" value="GET&lt;br&gt;$DATA_BC_API_URL&lt;br&gt;&lt;b&gt;/address.geojson&lt;/b&gt;" style="shape=process;whiteSpace=wrap;html=1;backgroundOutline=1;" parent="1" vertex="1">
          <mxGeometry x="301.5" y="1129" width="288.5" height="51" as="geometry" />
        </mxCell>
        <mxCell id="VJzOnykqqH7Xgn4NE6L_-2" value="Read Timeout" style="swimlane;fontStyle=0;childLayout=stackLayout;horizontal=1;startSize=30;horizontalStack=0;resizeParent=1;resizeParentMax=0;resizeLast=0;collapsible=1;marginBottom=0;whiteSpace=wrap;html=1;" parent="1" vertex="1">
          <mxGeometry x="-18" y="1220" width="290" height="160" as="geometry">
            <mxRectangle x="-18" y="1220" width="160" height="20" as="alternateBounds" />
          </mxGeometry>
        </mxCell>
        <mxCell id="VJzOnykqqH7Xgn4NE6L_-3" value="status_code: 400" style="text;strokeColor=none;fillColor=none;align=left;verticalAlign=middle;spacingLeft=4;spacingRight=4;overflow=hidden;points=[[0,0.5],[1,0.5]];portConstraint=eastwest;rotatable=0;whiteSpace=wrap;html=1;" parent="VJzOnykqqH7Xgn4NE6L_-2" vertex="1">
          <mxGeometry y="30" width="290" height="20" as="geometry" />
        </mxCell>
        <mxCell id="VJzOnykqqH7Xgn4NE6L_-8" value="warn:&amp;nbsp;response from DataBC took too long" style="text;strokeColor=none;fillColor=none;align=left;verticalAlign=middle;spacingLeft=4;spacingRight=4;overflow=hidden;points=[[0,0.5],[1,0.5]];portConstraint=eastwest;rotatable=0;whiteSpace=wrap;html=1;" parent="VJzOnykqqH7Xgn4NE6L_-2" vertex="1">
          <mxGeometry y="50" width="290" height="20" as="geometry" />
        </mxCell>
        <mxCell id="VJzOnykqqH7Xgn4NE6L_-9" value="error_string:&amp;nbsp;DataBC did not return a successful response" style="text;strokeColor=none;fillColor=none;align=left;verticalAlign=middle;spacingLeft=4;spacingRight=4;overflow=hidden;points=[[0,0.5],[1,0.5]];portConstraint=eastwest;rotatable=0;whiteSpace=wrap;html=1;" parent="VJzOnykqqH7Xgn4NE6L_-2" vertex="1">
          <mxGeometry y="70" width="290" height="20" as="geometry" />
        </mxCell>
        <mxCell id="VJzOnykqqH7Xgn4NE6L_-19" value="response" style="swimlane;fontStyle=0;childLayout=stackLayout;horizontal=1;startSize=30;horizontalStack=0;resizeParent=1;resizeParentMax=0;resizeLast=0;collapsible=1;marginBottom=0;whiteSpace=wrap;html=1;" parent="VJzOnykqqH7Xgn4NE6L_-2" vertex="1">
          <mxGeometry y="90" width="290" height="70" as="geometry">
            <mxRectangle y="90" width="290" height="20" as="alternateBounds" />
          </mxGeometry>
        </mxCell>
        <mxCell id="VJzOnykqqH7Xgn4NE6L_-24" value="is_success:&amp;nbsp;False" style="text;strokeColor=none;fillColor=none;align=left;verticalAlign=middle;spacingLeft=4;spacingRight=4;overflow=hidden;points=[[0,0.5],[1,0.5]];portConstraint=eastwest;rotatable=0;whiteSpace=wrap;html=1;" parent="VJzOnykqqH7Xgn4NE6L_-19" vertex="1">
          <mxGeometry y="30" width="290" height="20" as="geometry" />
        </mxCell>
        <mxCell id="VJzOnykqqH7Xgn4NE6L_-22" value="error: DataBC is Not responding" style="text;strokeColor=none;fillColor=none;align=left;verticalAlign=middle;spacingLeft=4;spacingRight=4;overflow=hidden;points=[[0,0.5],[1,0.5]];portConstraint=eastwest;rotatable=0;whiteSpace=wrap;html=1;" parent="VJzOnykqqH7Xgn4NE6L_-19" vertex="1">
          <mxGeometry y="50" width="290" height="20" as="geometry" />
        </mxCell>
        <mxCell id="VJzOnykqqH7Xgn4NE6L_-30" value="Connection Error" style="swimlane;fontStyle=0;childLayout=stackLayout;horizontal=1;startSize=30;horizontalStack=0;resizeParent=1;resizeParentMax=0;resizeLast=0;collapsible=1;marginBottom=0;whiteSpace=wrap;html=1;" parent="1" vertex="1">
          <mxGeometry x="299.75" y="1230" width="280" height="160" as="geometry">
            <mxRectangle x="299.75" y="1230" width="160" height="20" as="alternateBounds" />
          </mxGeometry>
        </mxCell>
        <mxCell id="VJzOnykqqH7Xgn4NE6L_-31" value="status_code: 400" style="text;strokeColor=none;fillColor=none;align=left;verticalAlign=middle;spacingLeft=4;spacingRight=4;overflow=hidden;points=[[0,0.5],[1,0.5]];portConstraint=eastwest;rotatable=0;whiteSpace=wrap;html=1;" parent="VJzOnykqqH7Xgn4NE6L_-30" vertex="1">
          <mxGeometry y="30" width="280" height="20" as="geometry" />
        </mxCell>
        <mxCell id="VJzOnykqqH7Xgn4NE6L_-32" value="warn:&amp;nbsp;no response from the DataBC API" style="text;strokeColor=none;fillColor=none;align=left;verticalAlign=middle;spacingLeft=4;spacingRight=4;overflow=hidden;points=[[0,0.5],[1,0.5]];portConstraint=eastwest;rotatable=0;whiteSpace=wrap;html=1;" parent="VJzOnykqqH7Xgn4NE6L_-30" vertex="1">
          <mxGeometry y="50" width="280" height="20" as="geometry" />
        </mxCell>
        <mxCell id="VJzOnykqqH7Xgn4NE6L_-33" value="error_string:&amp;nbsp;DataBC did not return a successful response" style="text;strokeColor=none;fillColor=none;align=left;verticalAlign=middle;spacingLeft=4;spacingRight=4;overflow=hidden;points=[[0,0.5],[1,0.5]];portConstraint=eastwest;rotatable=0;whiteSpace=wrap;html=1;" parent="VJzOnykqqH7Xgn4NE6L_-30" vertex="1">
          <mxGeometry y="70" width="280" height="20" as="geometry" />
        </mxCell>
        <mxCell id="VJzOnykqqH7Xgn4NE6L_-34" value="response" style="swimlane;fontStyle=0;childLayout=stackLayout;horizontal=1;startSize=30;horizontalStack=0;resizeParent=1;resizeParentMax=0;resizeLast=0;collapsible=1;marginBottom=0;whiteSpace=wrap;html=1;" parent="VJzOnykqqH7Xgn4NE6L_-30" vertex="1">
          <mxGeometry y="90" width="280" height="70" as="geometry">
            <mxRectangle y="90" width="280" height="20" as="alternateBounds" />
          </mxGeometry>
        </mxCell>
        <mxCell id="VJzOnykqqH7Xgn4NE6L_-35" value="is_success:&amp;nbsp;False" style="text;strokeColor=none;fillColor=none;align=left;verticalAlign=middle;spacingLeft=4;spacingRight=4;overflow=hidden;points=[[0,0.5],[1,0.5]];portConstraint=eastwest;rotatable=0;whiteSpace=wrap;html=1;" parent="VJzOnykqqH7Xgn4NE6L_-34" vertex="1">
          <mxGeometry y="30" width="280" height="20" as="geometry" />
        </mxCell>
        <mxCell id="VJzOnykqqH7Xgn4NE6L_-36" value="error: DataBC is Not responding" style="text;strokeColor=none;fillColor=none;align=left;verticalAlign=middle;spacingLeft=4;spacingRight=4;overflow=hidden;points=[[0,0.5],[1,0.5]];portConstraint=eastwest;rotatable=0;whiteSpace=wrap;html=1;" parent="VJzOnykqqH7Xgn4NE6L_-34" vertex="1">
          <mxGeometry y="50" width="280" height="20" as="geometry" />
        </mxCell>
        <mxCell id="VJzOnykqqH7Xgn4NE6L_-54" style="edgeStyle=orthogonalEdgeStyle;rounded=0;orthogonalLoop=1;jettySize=auto;html=1;" parent="1" source="VJzOnykqqH7Xgn4NE6L_-37" target="VJzOnykqqH7Xgn4NE6L_-53" edge="1">
          <mxGeometry relative="1" as="geometry" />
        </mxCell>
        <mxCell id="VJzOnykqqH7Xgn4NE6L_-37" value="SUCCESS" style="swimlane;fontStyle=0;childLayout=stackLayout;horizontal=1;startSize=20;horizontalStack=0;resizeParent=1;resizeParentMax=0;resizeLast=0;collapsible=1;marginBottom=0;whiteSpace=wrap;html=1;" parent="1" vertex="1">
          <mxGeometry x="598.63" y="1230" width="170" height="60" as="geometry">
            <mxRectangle x="598.63" y="1230" width="160" height="20" as="alternateBounds" />
          </mxGeometry>
        </mxCell>
        <mxCell id="VJzOnykqqH7Xgn4NE6L_-38" value="status_code: 200" style="text;strokeColor=none;fillColor=none;align=left;verticalAlign=middle;spacingLeft=4;spacingRight=4;overflow=hidden;points=[[0,0.5],[1,0.5]];portConstraint=eastwest;rotatable=0;whiteSpace=wrap;html=1;" parent="VJzOnykqqH7Xgn4NE6L_-37" vertex="1">
          <mxGeometry y="20" width="170" height="20" as="geometry" />
        </mxCell>
        <mxCell id="VJzOnykqqH7Xgn4NE6L_-44" value="data_bc_raw:&amp;nbsp;response.json()" style="text;strokeColor=none;fillColor=none;align=left;verticalAlign=middle;spacingLeft=4;spacingRight=4;overflow=hidden;points=[[0,0.5],[1,0.5]];portConstraint=eastwest;rotatable=0;whiteSpace=wrap;html=1;" parent="VJzOnykqqH7Xgn4NE6L_-37" vertex="1">
          <mxGeometry y="40" width="170" height="20" as="geometry" />
        </mxCell>
        <mxCell id="VJzOnykqqH7Xgn4NE6L_-58" style="edgeStyle=orthogonalEdgeStyle;rounded=0;orthogonalLoop=1;jettySize=auto;html=1;entryX=0.5;entryY=0;entryDx=0;entryDy=0;" parent="1" source="VJzOnykqqH7Xgn4NE6L_-53" target="VJzOnykqqH7Xgn4NE6L_-55" edge="1">
          <mxGeometry relative="1" as="geometry" />
        </mxCell>
        <mxCell id="VJzOnykqqH7Xgn4NE6L_-74" style="edgeStyle=orthogonalEdgeStyle;rounded=0;orthogonalLoop=1;jettySize=auto;html=1;entryX=0.469;entryY=0.04;entryDx=0;entryDy=0;entryPerimeter=0;" parent="1" source="VJzOnykqqH7Xgn4NE6L_-53" target="VJzOnykqqH7Xgn4NE6L_-67" edge="1">
          <mxGeometry relative="1" as="geometry" />
        </mxCell>
        <mxCell id="VJzOnykqqH7Xgn4NE6L_-53" value="is Response &lt;br&gt;valid ?" style="rhombus;whiteSpace=wrap;html=1;" parent="1" vertex="1">
          <mxGeometry x="633.75" y="1410" width="97.75" height="90" as="geometry" />
        </mxCell>
        <mxCell id="VJzOnykqqH7Xgn4NE6L_-76" style="edgeStyle=orthogonalEdgeStyle;rounded=0;orthogonalLoop=1;jettySize=auto;html=1;" parent="1" source="VJzOnykqqH7Xgn4NE6L_-55" target="VJzOnykqqH7Xgn4NE6L_-75" edge="1">
          <mxGeometry relative="1" as="geometry" />
        </mxCell>
        <mxCell id="VJzOnykqqH7Xgn4NE6L_-55" value="Data BC Raw" style="swimlane;fontStyle=0;childLayout=stackLayout;horizontal=1;startSize=20;horizontalStack=0;resizeParent=1;resizeParentMax=0;resizeLast=0;collapsible=1;marginBottom=0;whiteSpace=wrap;html=1;" parent="1" vertex="1">
          <mxGeometry x="602.63" y="1530" width="230" height="200" as="geometry">
            <mxRectangle x="598.63" y="1470" width="160" height="20" as="alternateBounds" />
          </mxGeometry>
        </mxCell>
        <mxCell id="VJzOnykqqH7Xgn4NE6L_-56" value="coordinates: $data_bc_raw.coordinates" style="text;strokeColor=none;fillColor=none;align=left;verticalAlign=middle;spacingLeft=4;spacingRight=4;overflow=hidden;points=[[0,0.5],[1,0.5]];portConstraint=eastwest;rotatable=0;whiteSpace=wrap;html=1;" parent="VJzOnykqqH7Xgn4NE6L_-55" vertex="1">
          <mxGeometry y="20" width="230" height="20" as="geometry" />
        </mxCell>
        <mxCell id="VJzOnykqqH7Xgn4NE6L_-66" value="debug: faults" style="text;strokeColor=none;fillColor=none;align=left;verticalAlign=middle;spacingLeft=4;spacingRight=4;overflow=hidden;points=[[0,0.5],[1,0.5]];portConstraint=eastwest;rotatable=0;whiteSpace=wrap;html=1;" parent="VJzOnykqqH7Xgn4NE6L_-55" vertex="1">
          <mxGeometry y="40" width="230" height="20" as="geometry" />
        </mxCell>
        <mxCell id="VJzOnykqqH7Xgn4NE6L_-59" value="data_bc" style="swimlane;fontStyle=0;childLayout=stackLayout;horizontal=1;startSize=20;horizontalStack=0;resizeParent=1;resizeParentMax=0;resizeLast=0;collapsible=1;marginBottom=0;whiteSpace=wrap;html=1;" parent="VJzOnykqqH7Xgn4NE6L_-55" vertex="1">
          <mxGeometry y="60" width="230" height="140" as="geometry">
            <mxRectangle y="60" width="230" height="20" as="alternateBounds" />
          </mxGeometry>
        </mxCell>
        <mxCell id="VJzOnykqqH7Xgn4NE6L_-60" value="score: $data_bc_raw.&lt;span style=&quot;background-color: initial;&quot;&gt;score&lt;/span&gt;" style="text;strokeColor=none;fillColor=none;align=left;verticalAlign=middle;spacingLeft=4;spacingRight=4;overflow=hidden;points=[[0,0.5],[1,0.5]];portConstraint=eastwest;rotatable=0;whiteSpace=wrap;html=1;" parent="VJzOnykqqH7Xgn4NE6L_-59" vertex="1">
          <mxGeometry y="20" width="230" height="20" as="geometry" />
        </mxCell>
        <mxCell id="VJzOnykqqH7Xgn4NE6L_-61" value="precision: $data_bc_raw.&lt;span style=&quot;background-color: initial;&quot;&gt;precision&lt;/span&gt;" style="text;strokeColor=none;fillColor=none;align=left;verticalAlign=middle;spacingLeft=4;spacingRight=4;overflow=hidden;points=[[0,0.5],[1,0.5]];portConstraint=eastwest;rotatable=0;whiteSpace=wrap;html=1;" parent="VJzOnykqqH7Xgn4NE6L_-59" vertex="1">
          <mxGeometry y="40" width="230" height="20" as="geometry" />
        </mxCell>
        <mxCell id="VJzOnykqqH7Xgn4NE6L_-62" value="full_address: $data_bc_raw.&lt;span style=&quot;background-color: initial;&quot;&gt;full_addres&lt;/span&gt;" style="text;strokeColor=none;fillColor=none;align=left;verticalAlign=middle;spacingLeft=4;spacingRight=4;overflow=hidden;points=[[0,0.5],[1,0.5]];portConstraint=eastwest;rotatable=0;whiteSpace=wrap;html=1;" parent="VJzOnykqqH7Xgn4NE6L_-59" vertex="1">
          <mxGeometry y="60" width="230" height="20" as="geometry" />
        </mxCell>
        <mxCell id="VJzOnykqqH7Xgn4NE6L_-63" value="faults: $data_bc_raw.faults" style="text;strokeColor=none;fillColor=none;align=left;verticalAlign=middle;spacingLeft=4;spacingRight=4;overflow=hidden;points=[[0,0.5],[1,0.5]];portConstraint=eastwest;rotatable=0;whiteSpace=wrap;html=1;" parent="VJzOnykqqH7Xgn4NE6L_-59" vertex="1">
          <mxGeometry y="80" width="230" height="20" as="geometry" />
        </mxCell>
        <mxCell id="VJzOnykqqH7Xgn4NE6L_-65" value="lat: $coordinates[1]" style="text;strokeColor=none;fillColor=none;align=left;verticalAlign=middle;spacingLeft=4;spacingRight=4;overflow=hidden;points=[[0,0.5],[1,0.5]];portConstraint=eastwest;rotatable=0;whiteSpace=wrap;html=1;" parent="VJzOnykqqH7Xgn4NE6L_-59" vertex="1">
          <mxGeometry y="100" width="230" height="20" as="geometry" />
        </mxCell>
        <mxCell id="VJzOnykqqH7Xgn4NE6L_-64" value="lon: $coordinates[0]" style="text;strokeColor=none;fillColor=none;align=left;verticalAlign=middle;spacingLeft=4;spacingRight=4;overflow=hidden;points=[[0,0.5],[1,0.5]];portConstraint=eastwest;rotatable=0;whiteSpace=wrap;html=1;" parent="VJzOnykqqH7Xgn4NE6L_-59" vertex="1">
          <mxGeometry y="120" width="230" height="20" as="geometry" />
        </mxCell>
        <mxCell id="VJzOnykqqH7Xgn4NE6L_-67" value="Attribute Error" style="swimlane;fontStyle=0;childLayout=stackLayout;horizontal=1;startSize=30;horizontalStack=0;resizeParent=1;resizeParentMax=0;resizeLast=0;collapsible=1;marginBottom=0;whiteSpace=wrap;html=1;" parent="1" vertex="1">
          <mxGeometry x="-7.5" y="1450" width="365" height="160" as="geometry">
            <mxRectangle x="104" y="1485" width="160" height="20" as="alternateBounds" />
          </mxGeometry>
        </mxCell>
        <mxCell id="VJzOnykqqH7Xgn4NE6L_-68" value="status_code: 400" style="text;strokeColor=none;fillColor=none;align=left;verticalAlign=middle;spacingLeft=4;spacingRight=4;overflow=hidden;points=[[0,0.5],[1,0.5]];portConstraint=eastwest;rotatable=0;whiteSpace=wrap;html=1;" parent="VJzOnykqqH7Xgn4NE6L_-67" vertex="1">
          <mxGeometry y="30" width="365" height="20" as="geometry" />
        </mxCell>
        <mxCell id="VJzOnykqqH7Xgn4NE6L_-69" value="warn: response from DataBC did not match expected format" style="text;strokeColor=none;fillColor=none;align=left;verticalAlign=middle;spacingLeft=4;spacingRight=4;overflow=hidden;points=[[0,0.5],[1,0.5]];portConstraint=eastwest;rotatable=0;whiteSpace=wrap;html=1;" parent="VJzOnykqqH7Xgn4NE6L_-67" vertex="1">
          <mxGeometry y="50" width="365" height="20" as="geometry" />
        </mxCell>
        <mxCell id="VJzOnykqqH7Xgn4NE6L_-70" value="error_string: response from DataBC did not match expected format" style="text;strokeColor=none;fillColor=none;align=left;verticalAlign=middle;spacingLeft=4;spacingRight=4;overflow=hidden;points=[[0,0.5],[1,0.5]];portConstraint=eastwest;rotatable=0;whiteSpace=wrap;html=1;" parent="VJzOnykqqH7Xgn4NE6L_-67" vertex="1">
          <mxGeometry y="70" width="365" height="20" as="geometry" />
        </mxCell>
        <mxCell id="VJzOnykqqH7Xgn4NE6L_-71" value="response" style="swimlane;fontStyle=0;childLayout=stackLayout;horizontal=1;startSize=30;horizontalStack=0;resizeParent=1;resizeParentMax=0;resizeLast=0;collapsible=1;marginBottom=0;whiteSpace=wrap;html=1;" parent="VJzOnykqqH7Xgn4NE6L_-67" vertex="1">
          <mxGeometry y="90" width="365" height="70" as="geometry">
            <mxRectangle y="90" width="365" height="20" as="alternateBounds" />
          </mxGeometry>
        </mxCell>
        <mxCell id="VJzOnykqqH7Xgn4NE6L_-72" value="is_success:&amp;nbsp;False" style="text;strokeColor=none;fillColor=none;align=left;verticalAlign=middle;spacingLeft=4;spacingRight=4;overflow=hidden;points=[[0,0.5],[1,0.5]];portConstraint=eastwest;rotatable=0;whiteSpace=wrap;html=1;" parent="VJzOnykqqH7Xgn4NE6L_-71" vertex="1">
          <mxGeometry y="30" width="365" height="20" as="geometry" />
        </mxCell>
        <mxCell id="VJzOnykqqH7Xgn4NE6L_-73" value="error: DataBC is Not responding" style="text;strokeColor=none;fillColor=none;align=left;verticalAlign=middle;spacingLeft=4;spacingRight=4;overflow=hidden;points=[[0,0.5],[1,0.5]];portConstraint=eastwest;rotatable=0;whiteSpace=wrap;html=1;" parent="VJzOnykqqH7Xgn4NE6L_-71" vertex="1">
          <mxGeometry y="50" width="365" height="20" as="geometry" />
        </mxCell>
        <mxCell id="VJzOnykqqH7Xgn4NE6L_-107" style="edgeStyle=orthogonalEdgeStyle;rounded=0;orthogonalLoop=1;jettySize=auto;html=1;" parent="1" source="VJzOnykqqH7Xgn4NE6L_-75" target="VJzOnykqqH7Xgn4NE6L_-95" edge="1">
          <mxGeometry relative="1" as="geometry" />
        </mxCell>
        <mxCell id="VJzOnykqqH7Xgn4NE6L_-126" style="edgeStyle=orthogonalEdgeStyle;rounded=0;orthogonalLoop=1;jettySize=auto;html=1;entryX=0.5;entryY=0;entryDx=0;entryDy=0;" parent="1" source="VJzOnykqqH7Xgn4NE6L_-75" target="VJzOnykqqH7Xgn4NE6L_-105" edge="1">
          <mxGeometry relative="1" as="geometry" />
        </mxCell>
        <mxCell id="VJzOnykqqH7Xgn4NE6L_-75" value="is confidence &lt;br&gt;too low&amp;nbsp;?" style="rhombus;whiteSpace=wrap;html=1;" parent="1" vertex="1">
          <mxGeometry x="339.13" y="1640" width="103.87" height="100" as="geometry" />
        </mxCell>
        <mxCell id="VJzOnykqqH7Xgn4NE6L_-82" value="&lt;font style=&quot;font-size: 9px;&quot;&gt;&lt;span style=&quot;color: rgb(0, 0, 0); font-family: Helvetica; font-style: normal; font-variant-ligatures: normal; font-variant-caps: normal; font-weight: 400; letter-spacing: normal; orphans: 2; text-indent: 0px; text-transform: none; widows: 2; word-spacing: 0px; -webkit-text-stroke-width: 0px; background-color: rgb(251, 251, 251); text-decoration-thickness: initial; text-decoration-style: initial; text-decoration-color: initial; float: none; display: inline !important;&quot;&gt;data_bc &lt;br&gt;&amp;lt;&amp;nbsp;&lt;br&gt;MIN_CONFIDENCE_SCORE&lt;/span&gt;&lt;span style=&quot;border-color: var(--border-color); color: rgb(0, 0, 0); font-family: Helvetica; font-style: normal; font-variant-ligatures: normal; font-variant-caps: normal; font-weight: 400; letter-spacing: normal; orphans: 2; text-indent: 0px; text-transform: none; widows: 2; word-spacing: 0px; -webkit-text-stroke-width: 0px; background-color: initial; text-decoration-thickness: initial; text-decoration-style: initial; text-decoration-color: initial;&quot;&gt;&amp;nbsp;&lt;/span&gt;&lt;/font&gt;" style="text;whiteSpace=wrap;html=1;align=center;" parent="1" vertex="1">
          <mxGeometry x="416.5" y="1670" width="120" height="50" as="geometry" />
        </mxCell>
        <mxCell id="VJzOnykqqH7Xgn4NE6L_-95" value="Data BC Only Response" style="swimlane;fontStyle=0;childLayout=stackLayout;horizontal=1;startSize=30;horizontalStack=0;resizeParent=1;resizeParentMax=0;resizeLast=0;collapsible=1;marginBottom=0;whiteSpace=wrap;html=1;" parent="1" vertex="1">
          <mxGeometry x="312.63" y="1780" width="395" height="160" as="geometry">
            <mxRectangle x="312.63" y="1780" width="155" height="20" as="alternateBounds" />
          </mxGeometry>
        </mxCell>
        <mxCell id="VJzOnykqqH7Xgn4NE6L_-96" value="status_code: 200" style="text;strokeColor=none;fillColor=none;align=left;verticalAlign=middle;spacingLeft=4;spacingRight=4;overflow=hidden;points=[[0,0.5],[1,0.5]];portConstraint=eastwest;rotatable=0;whiteSpace=wrap;html=1;" parent="VJzOnykqqH7Xgn4NE6L_-95" vertex="1">
          <mxGeometry y="30" width="395" height="20" as="geometry" />
        </mxCell>
        <mxCell id="VJzOnykqqH7Xgn4NE6L_-97" value="debug: Sent DataBC $address_raw which returned a score of $score" style="text;strokeColor=none;fillColor=none;align=left;verticalAlign=middle;spacingLeft=4;spacingRight=4;overflow=hidden;points=[[0,0.5],[1,0.5]];portConstraint=eastwest;rotatable=0;whiteSpace=wrap;html=1;" parent="VJzOnykqqH7Xgn4NE6L_-95" vertex="1">
          <mxGeometry y="50" width="395" height="20" as="geometry" />
        </mxCell>
        <mxCell id="VJzOnykqqH7Xgn4NE6L_-99" value="response" style="swimlane;fontStyle=0;childLayout=stackLayout;horizontal=1;startSize=30;horizontalStack=0;resizeParent=1;resizeParentMax=0;resizeLast=0;collapsible=1;marginBottom=0;whiteSpace=wrap;html=1;" parent="VJzOnykqqH7Xgn4NE6L_-95" vertex="1">
          <mxGeometry y="70" width="395" height="90" as="geometry">
            <mxRectangle y="70" width="395" height="20" as="alternateBounds" />
          </mxGeometry>
        </mxCell>
        <mxCell id="VJzOnykqqH7Xgn4NE6L_-100" value="is_success:&amp;nbsp;True" style="text;strokeColor=none;fillColor=none;align=left;verticalAlign=middle;spacingLeft=4;spacingRight=4;overflow=hidden;points=[[0,0.5],[1,0.5]];portConstraint=eastwest;rotatable=0;whiteSpace=wrap;html=1;" parent="VJzOnykqqH7Xgn4NE6L_-99" vertex="1">
          <mxGeometry y="30" width="395" height="20" as="geometry" />
        </mxCell>
        <mxCell id="VJzOnykqqH7Xgn4NE6L_-101" value="address_raw: $address_raw" style="text;strokeColor=none;fillColor=none;align=left;verticalAlign=middle;spacingLeft=4;spacingRight=4;overflow=hidden;points=[[0,0.5],[1,0.5]];portConstraint=eastwest;rotatable=0;whiteSpace=wrap;html=1;" parent="VJzOnykqqH7Xgn4NE6L_-99" vertex="1">
          <mxGeometry y="50" width="395" height="20" as="geometry" />
        </mxCell>
        <mxCell id="VJzOnykqqH7Xgn4NE6L_-103" value="data_bc: $data_bc" style="text;strokeColor=none;fillColor=none;align=left;verticalAlign=middle;spacingLeft=4;spacingRight=4;overflow=hidden;points=[[0,0.5],[1,0.5]];portConstraint=eastwest;rotatable=0;whiteSpace=wrap;html=1;" parent="VJzOnykqqH7Xgn4NE6L_-99" vertex="1">
          <mxGeometry y="70" width="395" height="20" as="geometry" />
        </mxCell>
        <mxCell id="VJzOnykqqH7Xgn4NE6L_-115" style="edgeStyle=orthogonalEdgeStyle;rounded=0;orthogonalLoop=1;jettySize=auto;html=1;entryX=1;entryY=0.5;entryDx=0;entryDy=0;" parent="1" source="VJzOnykqqH7Xgn4NE6L_-105" target="VJzOnykqqH7Xgn4NE6L_-108" edge="1">
          <mxGeometry relative="1" as="geometry" />
        </mxCell>
        <mxCell id="VJzOnykqqH7Xgn4NE6L_-117" style="edgeStyle=orthogonalEdgeStyle;rounded=0;orthogonalLoop=1;jettySize=auto;html=1;" parent="1" source="VJzOnykqqH7Xgn4NE6L_-105" target="VJzOnykqqH7Xgn4NE6L_-116" edge="1">
          <mxGeometry relative="1" as="geometry" />
        </mxCell>
        <mxCell id="VJzOnykqqH7Xgn4NE6L_-105" value="is google&lt;br&gt;fail over&lt;br&gt;enabled?" style="rhombus;whiteSpace=wrap;html=1;" parent="1" vertex="1">
          <mxGeometry x="136.76" y="1709" width="103.87" height="100" as="geometry" />
        </mxCell>
        <mxCell id="VJzOnykqqH7Xgn4NE6L_-108" value="Data BC Only Response" style="swimlane;fontStyle=0;childLayout=stackLayout;horizontal=1;startSize=30;horizontalStack=0;resizeParent=1;resizeParentMax=0;resizeLast=0;collapsible=1;marginBottom=0;whiteSpace=wrap;html=1;" parent="1" vertex="1">
          <mxGeometry x="-386" y="1749" width="395" height="160" as="geometry">
            <mxRectangle x="-386" y="1749" width="177.93" height="20" as="alternateBounds" />
          </mxGeometry>
        </mxCell>
        <mxCell id="VJzOnykqqH7Xgn4NE6L_-109" value="status_code: 200" style="text;strokeColor=none;fillColor=none;align=left;verticalAlign=middle;spacingLeft=4;spacingRight=4;overflow=hidden;points=[[0,0.5],[1,0.5]];portConstraint=eastwest;rotatable=0;whiteSpace=wrap;html=1;" parent="VJzOnykqqH7Xgn4NE6L_-108" vertex="1">
          <mxGeometry y="30" width="395" height="20" as="geometry" />
        </mxCell>
        <mxCell id="VJzOnykqqH7Xgn4NE6L_-110" value="debug: Sent DataBC $address_raw which returned a score of $score" style="text;strokeColor=none;fillColor=none;align=left;verticalAlign=middle;spacingLeft=4;spacingRight=4;overflow=hidden;points=[[0,0.5],[1,0.5]];portConstraint=eastwest;rotatable=0;whiteSpace=wrap;html=1;" parent="VJzOnykqqH7Xgn4NE6L_-108" vertex="1">
          <mxGeometry y="50" width="395" height="20" as="geometry" />
        </mxCell>
        <mxCell id="VJzOnykqqH7Xgn4NE6L_-111" value="response" style="swimlane;fontStyle=0;childLayout=stackLayout;horizontal=1;startSize=30;horizontalStack=0;resizeParent=1;resizeParentMax=0;resizeLast=0;collapsible=1;marginBottom=0;whiteSpace=wrap;html=1;" parent="VJzOnykqqH7Xgn4NE6L_-108" vertex="1">
          <mxGeometry y="70" width="395" height="90" as="geometry">
            <mxRectangle y="70" width="395" height="20" as="alternateBounds" />
          </mxGeometry>
        </mxCell>
        <mxCell id="VJzOnykqqH7Xgn4NE6L_-112" value="is_success:&amp;nbsp;True" style="text;strokeColor=none;fillColor=none;align=left;verticalAlign=middle;spacingLeft=4;spacingRight=4;overflow=hidden;points=[[0,0.5],[1,0.5]];portConstraint=eastwest;rotatable=0;whiteSpace=wrap;html=1;" parent="VJzOnykqqH7Xgn4NE6L_-111" vertex="1">
          <mxGeometry y="30" width="395" height="20" as="geometry" />
        </mxCell>
        <mxCell id="VJzOnykqqH7Xgn4NE6L_-113" value="address_raw: $addres_raw" style="text;strokeColor=none;fillColor=none;align=left;verticalAlign=middle;spacingLeft=4;spacingRight=4;overflow=hidden;points=[[0,0.5],[1,0.5]];portConstraint=eastwest;rotatable=0;whiteSpace=wrap;html=1;" parent="VJzOnykqqH7Xgn4NE6L_-111" vertex="1">
          <mxGeometry y="50" width="395" height="20" as="geometry" />
        </mxCell>
        <mxCell id="VJzOnykqqH7Xgn4NE6L_-114" value="data_bc: $data_bc" style="text;strokeColor=none;fillColor=none;align=left;verticalAlign=middle;spacingLeft=4;spacingRight=4;overflow=hidden;points=[[0,0.5],[1,0.5]];portConstraint=eastwest;rotatable=0;whiteSpace=wrap;html=1;" parent="VJzOnykqqH7Xgn4NE6L_-111" vertex="1">
          <mxGeometry y="70" width="395" height="20" as="geometry" />
        </mxCell>
        <mxCell id="VJzOnykqqH7Xgn4NE6L_-119" style="edgeStyle=orthogonalEdgeStyle;rounded=0;orthogonalLoop=1;jettySize=auto;html=1;" parent="1" source="VJzOnykqqH7Xgn4NE6L_-116" target="VJzOnykqqH7Xgn4NE6L_-118" edge="1">
          <mxGeometry relative="1" as="geometry" />
        </mxCell>
        <mxCell id="VJzOnykqqH7Xgn4NE6L_-116" value="&lt;font style=&quot;font-size: 9px;&quot;&gt;SET $GOOGLE_FAIL_OVER_ENABLED = True&lt;/font&gt;" style="rounded=0;whiteSpace=wrap;html=1;" parent="1" vertex="1">
          <mxGeometry x="88.70000000000005" y="1960" width="200" height="24" as="geometry" />
        </mxCell>
        <mxCell id="VJzOnykqqH7Xgn4NE6L_-147" style="edgeStyle=orthogonalEdgeStyle;rounded=0;orthogonalLoop=1;jettySize=auto;html=1;" parent="1" source="VJzOnykqqH7Xgn4NE6L_-118" target="VJzOnykqqH7Xgn4NE6L_-140" edge="1">
          <mxGeometry relative="1" as="geometry" />
        </mxCell>
        <mxCell id="VJzOnykqqH7Xgn4NE6L_-157" style="edgeStyle=orthogonalEdgeStyle;rounded=0;orthogonalLoop=1;jettySize=auto;html=1;" parent="1" source="VJzOnykqqH7Xgn4NE6L_-118" target="VJzOnykqqH7Xgn4NE6L_-149" edge="1">
          <mxGeometry relative="1" as="geometry" />
        </mxCell>
        <mxCell id="VJzOnykqqH7Xgn4NE6L_-118" value="is google&lt;br&gt;api key &lt;br&gt;provided?" style="rhombus;whiteSpace=wrap;html=1;" parent="1" vertex="1">
          <mxGeometry x="136.76999999999998" y="2010.5" width="103.87" height="100" as="geometry" />
        </mxCell>
        <mxCell id="VJzOnykqqH7Xgn4NE6L_-120" value="&lt;font size=&quot;1&quot;&gt;regex match&lt;br&gt;GOOGLE_API_KEY&lt;br&gt;&lt;/font&gt;" style="text;whiteSpace=wrap;html=1;align=center;" parent="1" vertex="1">
          <mxGeometry x="210.13" y="2005.5" width="100" height="40" as="geometry" />
        </mxCell>
        <mxCell id="VJzOnykqqH7Xgn4NE6L_-121" value="NO" style="text;html=1;strokeColor=none;fillColor=none;align=center;verticalAlign=middle;whiteSpace=wrap;rounded=0;" parent="1" vertex="1">
          <mxGeometry x="444.5" y="920" width="60" height="30" as="geometry" />
        </mxCell>
        <mxCell id="VJzOnykqqH7Xgn4NE6L_-122" value="YES" style="text;html=1;strokeColor=none;fillColor=none;align=center;verticalAlign=middle;whiteSpace=wrap;rounded=0;" parent="1" vertex="1">
          <mxGeometry x="444.5" y="610" width="60" height="30" as="geometry" />
        </mxCell>
        <mxCell id="VJzOnykqqH7Xgn4NE6L_-123" value="NO" style="text;html=1;strokeColor=none;fillColor=none;align=center;verticalAlign=middle;whiteSpace=wrap;rounded=0;" parent="1" vertex="1">
          <mxGeometry x="583.5699999999999" y="1430" width="60" height="30" as="geometry" />
        </mxCell>
        <mxCell id="VJzOnykqqH7Xgn4NE6L_-124" value="YES" style="text;html=1;strokeColor=none;fillColor=none;align=center;verticalAlign=middle;whiteSpace=wrap;rounded=0;" parent="1" vertex="1">
          <mxGeometry x="675.51" y="1505" width="60" height="30" as="geometry" />
        </mxCell>
        <mxCell id="VJzOnykqqH7Xgn4NE6L_-125" value="NO" style="text;html=1;strokeColor=none;fillColor=none;align=center;verticalAlign=middle;whiteSpace=wrap;rounded=0;" parent="1" vertex="1">
          <mxGeometry x="395" y="1750" width="60" height="30" as="geometry" />
        </mxCell>
        <mxCell id="VJzOnykqqH7Xgn4NE6L_-127" value="YES" style="text;html=1;strokeColor=none;fillColor=none;align=center;verticalAlign=middle;whiteSpace=wrap;rounded=0;" parent="1" vertex="1">
          <mxGeometry x="288.70000000000005" y="1660" width="60" height="30" as="geometry" />
        </mxCell>
        <mxCell id="VJzOnykqqH7Xgn4NE6L_-135" value="YES" style="text;html=1;strokeColor=none;fillColor=none;align=center;verticalAlign=middle;whiteSpace=wrap;rounded=0;" parent="1" vertex="1">
          <mxGeometry x="180.64000000000004" y="1810" width="60" height="30" as="geometry" />
        </mxCell>
        <mxCell id="VJzOnykqqH7Xgn4NE6L_-136" value="NO" style="text;html=1;strokeColor=none;fillColor=none;align=center;verticalAlign=middle;whiteSpace=wrap;rounded=0;" parent="1" vertex="1">
          <mxGeometry x="88.69999999999999" y="1730" width="60" height="30" as="geometry" />
        </mxCell>
        <mxCell id="VJzOnykqqH7Xgn4NE6L_-138" value="NO" style="text;html=1;strokeColor=none;fillColor=none;align=center;verticalAlign=middle;whiteSpace=wrap;rounded=0;" parent="1" vertex="1">
          <mxGeometry x="100" y="2030.5" width="60" height="30" as="geometry" />
        </mxCell>
        <mxCell id="VJzOnykqqH7Xgn4NE6L_-139" value="YES" style="text;html=1;strokeColor=none;fillColor=none;align=center;verticalAlign=middle;whiteSpace=wrap;rounded=0;" parent="1" vertex="1">
          <mxGeometry x="208" y="2110.5" width="60" height="30" as="geometry" />
        </mxCell>
        <mxCell id="VJzOnykqqH7Xgn4NE6L_-140" value="Generate Data BC Revert Response" style="swimlane;fontStyle=0;childLayout=stackLayout;horizontal=1;startSize=30;horizontalStack=0;resizeParent=1;resizeParentMax=0;resizeLast=0;collapsible=1;marginBottom=0;whiteSpace=wrap;html=1;" parent="1" vertex="1">
          <mxGeometry x="-409" y="2050.5" width="395" height="160" as="geometry">
            <mxRectangle x="-413" y="1990.5" width="272.43" height="20" as="alternateBounds" />
          </mxGeometry>
        </mxCell>
        <mxCell id="VJzOnykqqH7Xgn4NE6L_-141" value="status_code: 200" style="text;strokeColor=none;fillColor=none;align=left;verticalAlign=middle;spacingLeft=4;spacingRight=4;overflow=hidden;points=[[0,0.5],[1,0.5]];portConstraint=eastwest;rotatable=0;whiteSpace=wrap;html=1;" parent="VJzOnykqqH7Xgn4NE6L_-140" vertex="1">
          <mxGeometry y="30" width="395" height="20" as="geometry" />
        </mxCell>
        <mxCell id="VJzOnykqqH7Xgn4NE6L_-143" value="response" style="swimlane;fontStyle=0;childLayout=stackLayout;horizontal=1;startSize=30;horizontalStack=0;resizeParent=1;resizeParentMax=0;resizeLast=0;collapsible=1;marginBottom=0;whiteSpace=wrap;html=1;" parent="VJzOnykqqH7Xgn4NE6L_-140" vertex="1">
          <mxGeometry y="50" width="395" height="110" as="geometry">
            <mxRectangle y="50" width="395" height="20" as="alternateBounds" />
          </mxGeometry>
        </mxCell>
        <mxCell id="VJzOnykqqH7Xgn4NE6L_-144" value="is_success:&amp;nbsp;True" style="text;strokeColor=none;fillColor=none;align=left;verticalAlign=middle;spacingLeft=4;spacingRight=4;overflow=hidden;points=[[0,0.5],[1,0.5]];portConstraint=eastwest;rotatable=0;whiteSpace=wrap;html=1;" parent="VJzOnykqqH7Xgn4NE6L_-143" vertex="1">
          <mxGeometry y="30" width="395" height="20" as="geometry" />
        </mxCell>
        <mxCell id="VJzOnykqqH7Xgn4NE6L_-145" value="address_raw: $address_raw" style="text;strokeColor=none;fillColor=none;align=left;verticalAlign=middle;spacingLeft=4;spacingRight=4;overflow=hidden;points=[[0,0.5],[1,0.5]];portConstraint=eastwest;rotatable=0;whiteSpace=wrap;html=1;" parent="VJzOnykqqH7Xgn4NE6L_-143" vertex="1">
          <mxGeometry y="50" width="395" height="20" as="geometry" />
        </mxCell>
        <mxCell id="VJzOnykqqH7Xgn4NE6L_-146" value="data_bc: $data_bc" style="text;strokeColor=none;fillColor=none;align=left;verticalAlign=middle;spacingLeft=4;spacingRight=4;overflow=hidden;points=[[0,0.5],[1,0.5]];portConstraint=eastwest;rotatable=0;whiteSpace=wrap;html=1;" parent="VJzOnykqqH7Xgn4NE6L_-143" vertex="1">
          <mxGeometry y="70" width="395" height="20" as="geometry" />
        </mxCell>
        <mxCell id="GN6UmehpxaLbP1GuCBQx-2" value="google: $google" style="text;strokeColor=none;fillColor=none;align=left;verticalAlign=middle;spacingLeft=4;spacingRight=4;overflow=hidden;points=[[0,0.5],[1,0.5]];portConstraint=eastwest;rotatable=0;whiteSpace=wrap;html=1;" vertex="1" parent="VJzOnykqqH7Xgn4NE6L_-143">
          <mxGeometry y="90" width="395" height="20" as="geometry" />
        </mxCell>
        <mxCell id="VJzOnykqqH7Xgn4NE6L_-149" value="Generate Google and Data BC Response" style="swimlane;fontStyle=0;childLayout=stackLayout;horizontal=1;startSize=30;horizontalStack=0;resizeParent=1;resizeParentMax=0;resizeLast=0;collapsible=1;marginBottom=0;whiteSpace=wrap;html=1;" parent="1" vertex="1">
          <mxGeometry x="52.489999999999924" y="2201.5" width="395" height="160" as="geometry">
            <mxRectangle x="52.489999999999924" y="2201.5" width="272.43" height="20" as="alternateBounds" />
          </mxGeometry>
        </mxCell>
        <mxCell id="VJzOnykqqH7Xgn4NE6L_-150" value="status_code: 200" style="text;strokeColor=none;fillColor=none;align=left;verticalAlign=middle;spacingLeft=4;spacingRight=4;overflow=hidden;points=[[0,0.5],[1,0.5]];portConstraint=eastwest;rotatable=0;whiteSpace=wrap;html=1;" parent="VJzOnykqqH7Xgn4NE6L_-149" vertex="1">
          <mxGeometry y="30" width="395" height="20" as="geometry" />
        </mxCell>
        <mxCell id="VJzOnykqqH7Xgn4NE6L_-151" value="response" style="swimlane;fontStyle=0;childLayout=stackLayout;horizontal=1;startSize=30;horizontalStack=0;resizeParent=1;resizeParentMax=0;resizeLast=0;collapsible=1;marginBottom=0;whiteSpace=wrap;html=1;" parent="VJzOnykqqH7Xgn4NE6L_-149" vertex="1">
          <mxGeometry y="50" width="395" height="110" as="geometry">
            <mxRectangle y="50" width="395" height="20" as="alternateBounds" />
          </mxGeometry>
        </mxCell>
        <mxCell id="VJzOnykqqH7Xgn4NE6L_-152" value="is_success:&amp;nbsp;True" style="text;strokeColor=none;fillColor=none;align=left;verticalAlign=middle;spacingLeft=4;spacingRight=4;overflow=hidden;points=[[0,0.5],[1,0.5]];portConstraint=eastwest;rotatable=0;whiteSpace=wrap;html=1;" parent="VJzOnykqqH7Xgn4NE6L_-151" vertex="1">
          <mxGeometry y="30" width="395" height="20" as="geometry" />
        </mxCell>
        <mxCell id="VJzOnykqqH7Xgn4NE6L_-153" value="address_raw: $address_raw" style="text;strokeColor=none;fillColor=none;align=left;verticalAlign=middle;spacingLeft=4;spacingRight=4;overflow=hidden;points=[[0,0.5],[1,0.5]];portConstraint=eastwest;rotatable=0;whiteSpace=wrap;html=1;" parent="VJzOnykqqH7Xgn4NE6L_-151" vertex="1">
          <mxGeometry y="50" width="395" height="20" as="geometry" />
        </mxCell>
        <mxCell id="VJzOnykqqH7Xgn4NE6L_-154" value="data_bc: $data_bc" style="text;strokeColor=none;fillColor=none;align=left;verticalAlign=middle;spacingLeft=4;spacingRight=4;overflow=hidden;points=[[0,0.5],[1,0.5]];portConstraint=eastwest;rotatable=0;whiteSpace=wrap;html=1;" parent="VJzOnykqqH7Xgn4NE6L_-151" vertex="1">
          <mxGeometry y="70" width="395" height="20" as="geometry" />
        </mxCell>
        <mxCell id="VJzOnykqqH7Xgn4NE6L_-155" value="google: $google" style="text;strokeColor=none;fillColor=none;align=left;verticalAlign=middle;spacingLeft=4;spacingRight=4;overflow=hidden;points=[[0,0.5],[1,0.5]];portConstraint=eastwest;rotatable=0;whiteSpace=wrap;html=1;" parent="VJzOnykqqH7Xgn4NE6L_-151" vertex="1">
          <mxGeometry y="90" width="395" height="20" as="geometry" />
        </mxCell>
      </root>
    </mxGraphModel>
  </diagram>
  <diagram id="7NTDB7C-gm-JSK2fjq1i" name="PÃ¡gina-2">
    <mxGraphModel dx="2485" dy="820" grid="1" gridSize="10" guides="1" tooltips="1" connect="1" arrows="1" fold="1" page="1" pageScale="1" pageWidth="827" pageHeight="1169" math="0" shadow="0">
      <root>
        <mxCell id="0" />
        <mxCell id="1" parent="0" />
        <mxCell id="uJvYWeS08IraSfvc5noM-1" style="edgeStyle=orthogonalEdgeStyle;rounded=0;orthogonalLoop=1;jettySize=auto;html=1;" edge="1" parent="1" source="uJvYWeS08IraSfvc5noM-2" target="uJvYWeS08IraSfvc5noM-4">
          <mxGeometry relative="1" as="geometry" />
        </mxCell>
        <mxCell id="uJvYWeS08IraSfvc5noM-2" value="Check&amp;nbsp; Partner Interface Status" style="shape=process;whiteSpace=wrap;html=1;backgroundOutline=1;" vertex="1" parent="1">
          <mxGeometry x="160" y="160" width="160" height="40" as="geometry" />
        </mxCell>
        <mxCell id="uJvYWeS08IraSfvc5noM-3" style="edgeStyle=orthogonalEdgeStyle;rounded=0;orthogonalLoop=1;jettySize=auto;html=1;entryX=0;entryY=0.5;entryDx=0;entryDy=0;" edge="1" parent="1" source="uJvYWeS08IraSfvc5noM-4" target="uJvYWeS08IraSfvc5noM-6">
          <mxGeometry relative="1" as="geometry" />
        </mxCell>
        <mxCell id="uJvYWeS08IraSfvc5noM-4" value="is the interface&amp;nbsp;&lt;br&gt;stopped?" style="rhombus;whiteSpace=wrap;html=1;" vertex="1" parent="1">
          <mxGeometry x="182.5" y="230" width="115" height="100" as="geometry" />
        </mxCell>
        <mxCell id="uJvYWeS08IraSfvc5noM-5" style="edgeStyle=orthogonalEdgeStyle;rounded=0;orthogonalLoop=1;jettySize=auto;html=1;" edge="1" parent="1" source="uJvYWeS08IraSfvc5noM-6" target="uJvYWeS08IraSfvc5noM-11">
          <mxGeometry relative="1" as="geometry" />
        </mxCell>
        <mxCell id="uJvYWeS08IraSfvc5noM-6" value="Send&amp;nbsp; Ticket to ICBC" style="rounded=1;whiteSpace=wrap;html=1;" vertex="1" parent="1">
          <mxGeometry x="370" y="250" width="150" height="60" as="geometry" />
        </mxCell>
        <mxCell id="uJvYWeS08IraSfvc5noM-7" value="NO" style="text;html=1;strokeColor=none;fillColor=none;align=center;verticalAlign=middle;whiteSpace=wrap;rounded=0;" vertex="1" parent="1">
          <mxGeometry x="270" y="240" width="60" height="30" as="geometry" />
        </mxCell>
        <mxCell id="uJvYWeS08IraSfvc5noM-8" style="edgeStyle=orthogonalEdgeStyle;rounded=0;orthogonalLoop=1;jettySize=auto;html=1;entryX=0.5;entryY=0;entryDx=0;entryDy=0;" edge="1" parent="1" source="uJvYWeS08IraSfvc5noM-11" target="uJvYWeS08IraSfvc5noM-13">
          <mxGeometry relative="1" as="geometry">
            <Array as="points">
              <mxPoint x="445" y="430" />
              <mxPoint x="220" y="430" />
            </Array>
          </mxGeometry>
        </mxCell>
        <mxCell id="uJvYWeS08IraSfvc5noM-9" style="edgeStyle=orthogonalEdgeStyle;rounded=0;orthogonalLoop=1;jettySize=auto;html=1;" edge="1" parent="1" source="uJvYWeS08IraSfvc5noM-11" target="uJvYWeS08IraSfvc5noM-15">
          <mxGeometry relative="1" as="geometry" />
        </mxCell>
        <mxCell id="uJvYWeS08IraSfvc5noM-10" style="edgeStyle=orthogonalEdgeStyle;rounded=0;orthogonalLoop=1;jettySize=auto;html=1;" edge="1" parent="1" source="uJvYWeS08IraSfvc5noM-11" target="uJvYWeS08IraSfvc5noM-17">
          <mxGeometry relative="1" as="geometry">
            <Array as="points">
              <mxPoint x="445" y="430" />
              <mxPoint x="650" y="430" />
            </Array>
          </mxGeometry>
        </mxCell>
        <mxCell id="uJvYWeS08IraSfvc5noM-11" value="Response Processing Interface" style="shape=process;whiteSpace=wrap;html=1;backgroundOutline=1;" vertex="1" parent="1">
          <mxGeometry x="358" y="350" width="175" height="40" as="geometry" />
        </mxCell>
        <mxCell id="uJvYWeS08IraSfvc5noM-12" style="edgeStyle=orthogonalEdgeStyle;rounded=0;orthogonalLoop=1;jettySize=auto;html=1;entryX=0.5;entryY=0;entryDx=0;entryDy=0;" edge="1" parent="1" source="uJvYWeS08IraSfvc5noM-13" target="uJvYWeS08IraSfvc5noM-22">
          <mxGeometry relative="1" as="geometry" />
        </mxCell>
        <mxCell id="uJvYWeS08IraSfvc5noM-13" value="ACCEPTED" style="rounded=0;whiteSpace=wrap;html=1;" vertex="1" parent="1">
          <mxGeometry x="160" y="480" width="120" height="60" as="geometry" />
        </mxCell>
        <mxCell id="uJvYWeS08IraSfvc5noM-14" value="" style="edgeStyle=orthogonalEdgeStyle;rounded=0;orthogonalLoop=1;jettySize=auto;html=1;" edge="1" parent="1" source="uJvYWeS08IraSfvc5noM-15" target="uJvYWeS08IraSfvc5noM-35">
          <mxGeometry relative="1" as="geometry" />
        </mxCell>
        <mxCell id="uJvYWeS08IraSfvc5noM-15" value="OK or&lt;br&gt;CREATED" style="rounded=0;whiteSpace=wrap;html=1;" vertex="1" parent="1">
          <mxGeometry x="385.5" y="480" width="120" height="60" as="geometry" />
        </mxCell>
        <mxCell id="uJvYWeS08IraSfvc5noM-16" value="" style="edgeStyle=orthogonalEdgeStyle;rounded=0;orthogonalLoop=1;jettySize=auto;html=1;" edge="1" parent="1" source="uJvYWeS08IraSfvc5noM-17" target="uJvYWeS08IraSfvc5noM-76">
          <mxGeometry relative="1" as="geometry" />
        </mxCell>
        <mxCell id="uJvYWeS08IraSfvc5noM-17" value="BAD&lt;br&gt;REQUEST" style="rounded=0;whiteSpace=wrap;html=1;" vertex="1" parent="1">
          <mxGeometry x="590" y="480" width="120" height="60" as="geometry" />
        </mxCell>
        <mxCell id="uJvYWeS08IraSfvc5noM-18" style="edgeStyle=orthogonalEdgeStyle;rounded=0;orthogonalLoop=1;jettySize=auto;html=1;" edge="1" parent="1" source="uJvYWeS08IraSfvc5noM-19" target="uJvYWeS08IraSfvc5noM-2">
          <mxGeometry relative="1" as="geometry" />
        </mxCell>
        <mxCell id="uJvYWeS08IraSfvc5noM-19" value="Resquest&lt;br style=&quot;border-color: var(--border-color);&quot;&gt;QueryTicket" style="ellipse;whiteSpace=wrap;html=1;" vertex="1" parent="1">
          <mxGeometry x="179.5" y="60" width="120" height="60" as="geometry" />
        </mxCell>
        <mxCell id="uJvYWeS08IraSfvc5noM-20" style="edgeStyle=orthogonalEdgeStyle;rounded=0;orthogonalLoop=1;jettySize=auto;html=1;entryX=0.449;entryY=0.036;entryDx=0;entryDy=0;entryPerimeter=0;" edge="1" parent="1" source="uJvYWeS08IraSfvc5noM-21" target="uJvYWeS08IraSfvc5noM-74">
          <mxGeometry relative="1" as="geometry" />
        </mxCell>
        <mxCell id="uJvYWeS08IraSfvc5noM-21" value="NOT FOUND" style="rounded=0;whiteSpace=wrap;html=1;" vertex="1" parent="1">
          <mxGeometry x="30" y="900" width="120" height="40" as="geometry" />
        </mxCell>
        <mxCell id="uJvYWeS08IraSfvc5noM-22" value="Custom Status" style="swimlane;fontStyle=0;childLayout=stackLayout;horizontal=1;startSize=30;horizontalStack=0;resizeParent=1;resizeParentMax=0;resizeLast=0;collapsible=1;marginBottom=0;whiteSpace=wrap;html=1;" vertex="1" parent="1">
          <mxGeometry x="160" y="600" width="120" height="120" as="geometry" />
        </mxCell>
        <mxCell id="uJvYWeS08IraSfvc5noM-23" value="Status Code" style="text;strokeColor=none;fillColor=none;align=left;verticalAlign=middle;spacingLeft=4;spacingRight=4;overflow=hidden;points=[[0,0.5],[1,0.5]];portConstraint=eastwest;rotatable=0;whiteSpace=wrap;html=1;" vertex="1" parent="uJvYWeS08IraSfvc5noM-22">
          <mxGeometry y="30" width="120" height="30" as="geometry" />
        </mxCell>
        <mxCell id="uJvYWeS08IraSfvc5noM-24" value="Error Source" style="text;strokeColor=none;fillColor=none;align=left;verticalAlign=middle;spacingLeft=4;spacingRight=4;overflow=hidden;points=[[0,0.5],[1,0.5]];portConstraint=eastwest;rotatable=0;whiteSpace=wrap;html=1;" vertex="1" parent="uJvYWeS08IraSfvc5noM-22">
          <mxGeometry y="60" width="120" height="30" as="geometry" />
        </mxCell>
        <mxCell id="uJvYWeS08IraSfvc5noM-25" value="Error Flag" style="text;strokeColor=none;fillColor=none;align=left;verticalAlign=middle;spacingLeft=4;spacingRight=4;overflow=hidden;points=[[0,0.5],[1,0.5]];portConstraint=eastwest;rotatable=0;whiteSpace=wrap;html=1;" vertex="1" parent="uJvYWeS08IraSfvc5noM-22">
          <mxGeometry y="90" width="120" height="30" as="geometry" />
        </mxCell>
        <mxCell id="uJvYWeS08IraSfvc5noM-26" value="" style="edgeStyle=orthogonalEdgeStyle;rounded=0;orthogonalLoop=1;jettySize=auto;html=1;" edge="1" parent="1" source="uJvYWeS08IraSfvc5noM-28" target="uJvYWeS08IraSfvc5noM-21">
          <mxGeometry relative="1" as="geometry" />
        </mxCell>
        <mxCell id="uJvYWeS08IraSfvc5noM-27" value="" style="edgeStyle=orthogonalEdgeStyle;rounded=0;orthogonalLoop=1;jettySize=auto;html=1;" edge="1" parent="1" source="uJvYWeS08IraSfvc5noM-28" target="uJvYWeS08IraSfvc5noM-31">
          <mxGeometry relative="1" as="geometry" />
        </mxCell>
        <mxCell id="uJvYWeS08IraSfvc5noM-28" value="Type Error" style="rhombus;whiteSpace=wrap;html=1;" vertex="1" parent="1">
          <mxGeometry x="50" y="730" width="80" height="80" as="geometry" />
        </mxCell>
        <mxCell id="uJvYWeS08IraSfvc5noM-29" style="edgeStyle=orthogonalEdgeStyle;rounded=0;orthogonalLoop=1;jettySize=auto;html=1;entryX=0.5;entryY=0;entryDx=0;entryDy=0;" edge="1" parent="1" source="uJvYWeS08IraSfvc5noM-23" target="uJvYWeS08IraSfvc5noM-28">
          <mxGeometry relative="1" as="geometry" />
        </mxCell>
        <mxCell id="uJvYWeS08IraSfvc5noM-30" value="" style="edgeStyle=orthogonalEdgeStyle;rounded=0;orthogonalLoop=1;jettySize=auto;html=1;" edge="1" parent="1" source="uJvYWeS08IraSfvc5noM-31" target="uJvYWeS08IraSfvc5noM-33">
          <mxGeometry relative="1" as="geometry" />
        </mxCell>
        <mxCell id="uJvYWeS08IraSfvc5noM-31" value="Client Exception&lt;br&gt;General Payment Error" style="whiteSpace=wrap;html=1;" vertex="1" parent="1">
          <mxGeometry x="-170" y="750" width="140" height="40" as="geometry" />
        </mxCell>
        <mxCell id="uJvYWeS08IraSfvc5noM-32" style="edgeStyle=orthogonalEdgeStyle;rounded=0;orthogonalLoop=1;jettySize=auto;html=1;" edge="1" parent="1" source="uJvYWeS08IraSfvc5noM-33" target="uJvYWeS08IraSfvc5noM-73">
          <mxGeometry relative="1" as="geometry" />
        </mxCell>
        <mxCell id="uJvYWeS08IraSfvc5noM-33" value="SERVICE UNAVAILABLE" style="whiteSpace=wrap;html=1;" vertex="1" parent="1">
          <mxGeometry x="-160" y="900" width="120" height="40" as="geometry" />
        </mxCell>
        <mxCell id="uJvYWeS08IraSfvc5noM-34" value="" style="edgeStyle=orthogonalEdgeStyle;rounded=0;orthogonalLoop=1;jettySize=auto;html=1;" edge="1" parent="1" source="uJvYWeS08IraSfvc5noM-35" target="uJvYWeS08IraSfvc5noM-38">
          <mxGeometry relative="1" as="geometry" />
        </mxCell>
        <mxCell id="uJvYWeS08IraSfvc5noM-35" value="Update ICBC QT Interfaces to RUNNING&amp;nbsp;&lt;br&gt;" style="rounded=1;whiteSpace=wrap;html=1;" vertex="1" parent="1">
          <mxGeometry x="380" y="575" width="130" height="65" as="geometry" />
        </mxCell>
        <mxCell id="uJvYWeS08IraSfvc5noM-36" style="edgeStyle=orthogonalEdgeStyle;rounded=0;orthogonalLoop=1;jettySize=auto;html=1;entryX=0.5;entryY=0;entryDx=0;entryDy=0;" edge="1" parent="1" source="uJvYWeS08IraSfvc5noM-38" target="uJvYWeS08IraSfvc5noM-67">
          <mxGeometry relative="1" as="geometry" />
        </mxCell>
        <mxCell id="uJvYWeS08IraSfvc5noM-37" style="edgeStyle=orthogonalEdgeStyle;rounded=0;orthogonalLoop=1;jettySize=auto;html=1;entryX=0.5;entryY=0;entryDx=0;entryDy=0;" edge="1" parent="1" source="uJvYWeS08IraSfvc5noM-38" target="uJvYWeS08IraSfvc5noM-40">
          <mxGeometry relative="1" as="geometry" />
        </mxCell>
        <mxCell id="uJvYWeS08IraSfvc5noM-38" value="Is the body empty?" style="rhombus;whiteSpace=wrap;html=1;" vertex="1" parent="1">
          <mxGeometry x="397.5" y="680" width="95" height="90" as="geometry" />
        </mxCell>
        <mxCell id="uJvYWeS08IraSfvc5noM-39" style="edgeStyle=orthogonalEdgeStyle;rounded=0;orthogonalLoop=1;jettySize=auto;html=1;entryX=1;entryY=0.5;entryDx=0;entryDy=0;" edge="1" parent="1" source="uJvYWeS08IraSfvc5noM-40" target="uJvYWeS08IraSfvc5noM-74">
          <mxGeometry relative="1" as="geometry" />
        </mxCell>
        <mxCell id="uJvYWeS08IraSfvc5noM-40" value="OK&lt;br&gt;" style="whiteSpace=wrap;html=1;" vertex="1" parent="1">
          <mxGeometry x="255" y="837" width="90" height="20" as="geometry" />
        </mxCell>
        <mxCell id="uJvYWeS08IraSfvc5noM-41" style="edgeStyle=orthogonalEdgeStyle;rounded=0;orthogonalLoop=1;jettySize=auto;html=1;entryX=0.5;entryY=0;entryDx=0;entryDy=0;" edge="1" parent="1" source="uJvYWeS08IraSfvc5noM-44" target="uJvYWeS08IraSfvc5noM-56">
          <mxGeometry relative="1" as="geometry" />
        </mxCell>
        <mxCell id="uJvYWeS08IraSfvc5noM-42" style="edgeStyle=orthogonalEdgeStyle;rounded=0;orthogonalLoop=1;jettySize=auto;html=1;entryX=0.5;entryY=0;entryDx=0;entryDy=0;" edge="1" parent="1" source="uJvYWeS08IraSfvc5noM-44" target="uJvYWeS08IraSfvc5noM-54">
          <mxGeometry relative="1" as="geometry">
            <Array as="points">
              <mxPoint x="445" y="1000" />
              <mxPoint x="290" y="1000" />
            </Array>
          </mxGeometry>
        </mxCell>
        <mxCell id="uJvYWeS08IraSfvc5noM-43" style="edgeStyle=orthogonalEdgeStyle;rounded=0;orthogonalLoop=1;jettySize=auto;html=1;entryX=0.5;entryY=0;entryDx=0;entryDy=0;" edge="1" parent="1" source="uJvYWeS08IraSfvc5noM-44" target="uJvYWeS08IraSfvc5noM-58">
          <mxGeometry relative="1" as="geometry">
            <Array as="points">
              <mxPoint x="445" y="1000" />
              <mxPoint x="585" y="1000" />
            </Array>
          </mxGeometry>
        </mxCell>
        <mxCell id="uJvYWeS08IraSfvc5noM-44" value="Invoice Search Response" style="rounded=0;whiteSpace=wrap;html=1;" vertex="1" parent="1">
          <mxGeometry x="383.75" y="940" width="122.5" height="45" as="geometry" />
        </mxCell>
        <mxCell id="uJvYWeS08IraSfvc5noM-45" value="202" style="text;html=1;strokeColor=none;fillColor=none;align=center;verticalAlign=middle;whiteSpace=wrap;rounded=0;" vertex="1" parent="1">
          <mxGeometry x="220" y="400" width="60" height="30" as="geometry" />
        </mxCell>
        <mxCell id="uJvYWeS08IraSfvc5noM-46" value="200" style="text;html=1;strokeColor=none;fillColor=none;align=center;verticalAlign=middle;whiteSpace=wrap;rounded=0;" vertex="1" parent="1">
          <mxGeometry x="397.5" y="430" width="60" height="30" as="geometry" />
        </mxCell>
        <mxCell id="uJvYWeS08IraSfvc5noM-47" value="201" style="text;html=1;strokeColor=none;fillColor=none;align=center;verticalAlign=middle;whiteSpace=wrap;rounded=0;" vertex="1" parent="1">
          <mxGeometry x="432.5" y="430" width="60" height="30" as="geometry" />
        </mxCell>
        <mxCell id="uJvYWeS08IraSfvc5noM-48" value="400" style="text;html=1;strokeColor=none;fillColor=none;align=center;verticalAlign=middle;whiteSpace=wrap;rounded=0;" vertex="1" parent="1">
          <mxGeometry x="600" y="400" width="60" height="30" as="geometry" />
        </mxCell>
        <mxCell id="uJvYWeS08IraSfvc5noM-49" value="404" style="text;html=1;strokeColor=none;fillColor=none;align=center;verticalAlign=middle;whiteSpace=wrap;rounded=0;" vertex="1" parent="1">
          <mxGeometry x="100" y="730" width="60" height="30" as="geometry" />
        </mxCell>
        <mxCell id="uJvYWeS08IraSfvc5noM-50" value="ICBC_MSG 201" style="text;html=1;strokeColor=none;fillColor=none;align=center;verticalAlign=middle;whiteSpace=wrap;rounded=0;" vertex="1" parent="1">
          <mxGeometry x="-210" y="940" width="90" height="30" as="geometry" />
        </mxCell>
        <mxCell id="uJvYWeS08IraSfvc5noM-51" value="503" style="text;html=1;strokeColor=none;fillColor=none;align=center;verticalAlign=middle;whiteSpace=wrap;rounded=0;" vertex="1" parent="1">
          <mxGeometry x="-160" y="1120" width="60" height="30" as="geometry" />
        </mxCell>
        <mxCell id="uJvYWeS08IraSfvc5noM-52" value="&lt;span style=&quot;color: rgb(0, 0, 0); font-family: Helvetica; font-size: 12px; font-style: normal; font-variant-ligatures: normal; font-variant-caps: normal; font-weight: 400; letter-spacing: normal; orphans: 2; text-align: center; text-indent: 0px; text-transform: none; widows: 2; word-spacing: 0px; -webkit-text-stroke-width: 0px; background-color: rgb(251, 251, 251); text-decoration-thickness: initial; text-decoration-style: initial; text-decoration-color: initial; float: none; display: inline !important;&quot;&gt;ICBC_MSG 101&lt;/span&gt;" style="text;whiteSpace=wrap;html=1;" vertex="1" parent="1">
          <mxGeometry x="255" y="857" width="90" height="20" as="geometry" />
        </mxCell>
        <mxCell id="uJvYWeS08IraSfvc5noM-53" style="edgeStyle=orthogonalEdgeStyle;rounded=0;orthogonalLoop=1;jettySize=auto;html=1;entryX=0;entryY=0.5;entryDx=0;entryDy=0;" edge="1" parent="1" source="uJvYWeS08IraSfvc5noM-54" target="uJvYWeS08IraSfvc5noM-71">
          <mxGeometry relative="1" as="geometry">
            <Array as="points">
              <mxPoint x="315" y="1180" />
            </Array>
          </mxGeometry>
        </mxCell>
        <mxCell id="uJvYWeS08IraSfvc5noM-54" value="ZERO OUTSTANDING" style="whiteSpace=wrap;html=1;" vertex="1" parent="1">
          <mxGeometry x="255" y="1028" width="120" height="30" as="geometry" />
        </mxCell>
        <mxCell id="uJvYWeS08IraSfvc5noM-55" style="edgeStyle=orthogonalEdgeStyle;rounded=0;orthogonalLoop=1;jettySize=auto;html=1;" edge="1" parent="1" source="uJvYWeS08IraSfvc5noM-56" target="uJvYWeS08IraSfvc5noM-71">
          <mxGeometry relative="1" as="geometry" />
        </mxCell>
        <mxCell id="uJvYWeS08IraSfvc5noM-56" value="NOT PAYABLE" style="whiteSpace=wrap;html=1;" vertex="1" parent="1">
          <mxGeometry x="396.5" y="1030" width="97.5" height="30" as="geometry" />
        </mxCell>
        <mxCell id="uJvYWeS08IraSfvc5noM-57" style="edgeStyle=orthogonalEdgeStyle;rounded=0;orthogonalLoop=1;jettySize=auto;html=1;entryX=0.994;entryY=0.365;entryDx=0;entryDy=0;entryPerimeter=0;" edge="1" parent="1" source="uJvYWeS08IraSfvc5noM-58" target="uJvYWeS08IraSfvc5noM-71">
          <mxGeometry relative="1" as="geometry">
            <Array as="points">
              <mxPoint x="580" y="1172" />
            </Array>
          </mxGeometry>
        </mxCell>
        <mxCell id="uJvYWeS08IraSfvc5noM-58" value="SYSTEM ERROR" style="whiteSpace=wrap;html=1;" vertex="1" parent="1">
          <mxGeometry x="540" y="1030" width="90" height="30" as="geometry" />
        </mxCell>
        <mxCell id="uJvYWeS08IraSfvc5noM-59" value="ICBC_MSG 102" style="text;html=1;strokeColor=none;fillColor=none;align=center;verticalAlign=middle;whiteSpace=wrap;rounded=0;" vertex="1" parent="1">
          <mxGeometry x="220" y="1058" width="96" height="30" as="geometry" />
        </mxCell>
        <mxCell id="uJvYWeS08IraSfvc5noM-60" value="ICBC_MSG 103" style="text;html=1;strokeColor=none;fillColor=none;align=center;verticalAlign=middle;whiteSpace=wrap;rounded=0;" vertex="1" parent="1">
          <mxGeometry x="345" y="1058" width="96" height="30" as="geometry" />
        </mxCell>
        <mxCell id="uJvYWeS08IraSfvc5noM-61" value="ICBC_MSG 201" style="text;html=1;strokeColor=none;fillColor=none;align=center;verticalAlign=middle;whiteSpace=wrap;rounded=0;" vertex="1" parent="1">
          <mxGeometry x="484" y="1058" width="96" height="30" as="geometry" />
        </mxCell>
        <mxCell id="uJvYWeS08IraSfvc5noM-62" value="YES" style="text;html=1;strokeColor=none;fillColor=none;align=center;verticalAlign=middle;whiteSpace=wrap;rounded=0;" vertex="1" parent="1">
          <mxGeometry x="336.5" y="700" width="60" height="30" as="geometry" />
        </mxCell>
        <mxCell id="uJvYWeS08IraSfvc5noM-63" value="ICBC_MSG 201" style="text;html=1;strokeColor=none;fillColor=none;align=center;verticalAlign=middle;whiteSpace=wrap;rounded=0;" vertex="1" parent="1">
          <mxGeometry x="594" y="638" width="96" height="30" as="geometry" />
        </mxCell>
        <mxCell id="uJvYWeS08IraSfvc5noM-64" value="ICBC_MSG 101" style="text;html=1;strokeColor=none;fillColor=none;align=center;verticalAlign=middle;whiteSpace=wrap;rounded=0;" vertex="1" parent="1">
          <mxGeometry x="-14" y="940" width="90" height="30" as="geometry" />
        </mxCell>
        <mxCell id="uJvYWeS08IraSfvc5noM-65" style="edgeStyle=orthogonalEdgeStyle;rounded=0;orthogonalLoop=1;jettySize=auto;html=1;" edge="1" parent="1" source="uJvYWeS08IraSfvc5noM-67" target="uJvYWeS08IraSfvc5noM-44">
          <mxGeometry relative="1" as="geometry" />
        </mxCell>
        <mxCell id="uJvYWeS08IraSfvc5noM-66" style="edgeStyle=orthogonalEdgeStyle;rounded=0;orthogonalLoop=1;jettySize=auto;html=1;" edge="1" parent="1" source="uJvYWeS08IraSfvc5noM-67" target="uJvYWeS08IraSfvc5noM-69">
          <mxGeometry relative="1" as="geometry">
            <Array as="points">
              <mxPoint x="679" y="865" />
            </Array>
          </mxGeometry>
        </mxCell>
        <mxCell id="uJvYWeS08IraSfvc5noM-67" value="is it an &lt;br&gt;individual &lt;br&gt;invoice &lt;br&gt;search?" style="rhombus;whiteSpace=wrap;html=1;" vertex="1" parent="1">
          <mxGeometry x="389.5" y="820" width="111" height="90" as="geometry" />
        </mxCell>
        <mxCell id="uJvYWeS08IraSfvc5noM-68" style="edgeStyle=orthogonalEdgeStyle;rounded=0;orthogonalLoop=1;jettySize=auto;html=1;entryX=1.006;entryY=0.706;entryDx=0;entryDy=0;entryPerimeter=0;" edge="1" parent="1" source="uJvYWeS08IraSfvc5noM-69" target="uJvYWeS08IraSfvc5noM-71">
          <mxGeometry relative="1" as="geometry">
            <Array as="points">
              <mxPoint x="680" y="1192" />
            </Array>
          </mxGeometry>
        </mxCell>
        <mxCell id="uJvYWeS08IraSfvc5noM-69" value="Individual Search Response" style="rounded=0;whiteSpace=wrap;html=1;" vertex="1" parent="1">
          <mxGeometry x="617.5" y="900" width="122.5" height="45" as="geometry" />
        </mxCell>
        <mxCell id="uJvYWeS08IraSfvc5noM-70" value="YES" style="text;html=1;strokeColor=none;fillColor=none;align=center;verticalAlign=middle;whiteSpace=wrap;rounded=0;" vertex="1" parent="1">
          <mxGeometry x="630" y="837" width="60" height="30" as="geometry" />
        </mxCell>
        <mxCell id="uJvYWeS08IraSfvc5noM-71" value="HTTP&lt;br&gt;RESPONSE&lt;br&gt;OK or CREATED" style="rounded=1;whiteSpace=wrap;html=1;" vertex="1" parent="1">
          <mxGeometry x="382.5" y="1150" width="125" height="60" as="geometry" />
        </mxCell>
        <mxCell id="uJvYWeS08IraSfvc5noM-72" value="HTTP&lt;br&gt;RESPONSE&lt;br&gt;BAD REQUEST" style="rounded=1;whiteSpace=wrap;html=1;" vertex="1" parent="1">
          <mxGeometry x="740" y="1150" width="125" height="60" as="geometry" />
        </mxCell>
        <mxCell id="uJvYWeS08IraSfvc5noM-73" value="HTTP&lt;br&gt;RESPONSE&lt;br&gt;SERVICE UNAVAILABLE" style="rounded=1;whiteSpace=wrap;html=1;" vertex="1" parent="1">
          <mxGeometry x="-175" y="1150" width="150" height="60" as="geometry" />
        </mxCell>
        <mxCell id="uJvYWeS08IraSfvc5noM-74" value="HTTP&lt;br&gt;RESPONSE&lt;br&gt;OK" style="rounded=1;whiteSpace=wrap;html=1;" vertex="1" parent="1">
          <mxGeometry x="34" y="1150" width="125" height="60" as="geometry" />
        </mxCell>
        <mxCell id="uJvYWeS08IraSfvc5noM-75" style="edgeStyle=orthogonalEdgeStyle;rounded=0;orthogonalLoop=1;jettySize=auto;html=1;" edge="1" parent="1" source="uJvYWeS08IraSfvc5noM-76" target="uJvYWeS08IraSfvc5noM-72">
          <mxGeometry relative="1" as="geometry" />
        </mxCell>
        <mxCell id="uJvYWeS08IraSfvc5noM-76" value="Update ICBC QT Interfaces to&lt;br style=&quot;border-color: var(--border-color);&quot;&gt;FAILED" style="rounded=0;whiteSpace=wrap;html=1;" vertex="1" parent="1">
          <mxGeometry x="590" y="578" width="120" height="60" as="geometry" />
        </mxCell>
        <mxCell id="uJvYWeS08IraSfvc5noM-77" value="200" style="text;html=1;strokeColor=none;fillColor=none;align=center;verticalAlign=middle;whiteSpace=wrap;rounded=0;" vertex="1" parent="1">
          <mxGeometry x="30" y="1120" width="60" height="30" as="geometry" />
        </mxCell>
      </root>
    </mxGraphModel>
  </diagram>
</mxfile>
